<mxfile host="app.diagrams.net" agent="Mozilla/5.0 (Windows NT 10.0; Win64; x64) AppleWebKit/537.36 (KHTML, like Gecko) Chrome/131.0.0.0 Safari/537.36" version="25.0.3">
  <diagram name="Страница-1" id="dqNSiT5D7MyRNZezuSH7">
    <mxGraphModel dx="1195" dy="650" grid="1" gridSize="10" guides="1" tooltips="1" connect="1" arrows="1" fold="1" page="1" pageScale="1" pageWidth="1169" pageHeight="827" math="0" shadow="0">
      <root>
        <mxCell id="0" />
        <mxCell id="1" parent="0" />
        <mxCell id="wfz8kJHECWh1wRqD5ls--2" value="UserCreationFact" style="swimlane;fontStyle=0;childLayout=stackLayout;horizontal=1;startSize=26;fillColor=none;horizontalStack=0;resizeParent=1;resizeParentMax=0;resizeLast=0;collapsible=1;marginBottom=0;" vertex="1" parent="1">
          <mxGeometry x="429" y="40" width="130" height="110" as="geometry" />
        </mxCell>
        <mxCell id="wfz8kJHECWh1wRqD5ls--3" value="UserID (FK: User) &#xa;RegistrationDate (FK)&#xa;Country (FK: Address)&#xa;Source (FK: Source)&#xa;PhoneProvided " style="text;strokeColor=none;fillColor=none;align=left;verticalAlign=top;spacingLeft=4;spacingRight=4;overflow=hidden;rotatable=0;points=[[0,0.5],[1,0.5]];portConstraint=eastwest;" vertex="1" parent="wfz8kJHECWh1wRqD5ls--2">
          <mxGeometry y="26" width="130" height="84" as="geometry" />
        </mxCell>
        <mxCell id="wfz8kJHECWh1wRqD5ls--6" value="User Dimension" style="swimlane;fontStyle=0;childLayout=stackLayout;horizontal=1;startSize=26;fillColor=none;horizontalStack=0;resizeParent=1;resizeParentMax=0;resizeLast=0;collapsible=1;marginBottom=0;" vertex="1" parent="1">
          <mxGeometry x="650" y="60" width="140" height="160" as="geometry" />
        </mxCell>
        <mxCell id="wfz8kJHECWh1wRqD5ls--7" value="UserKey (SK)&#xa;&#xa;Username&#xa;Password&#xa;Firstname&#xa;Lastname&#xa;Phone&#xa;Email" style="text;strokeColor=none;fillColor=none;align=left;verticalAlign=top;spacingLeft=4;spacingRight=4;overflow=hidden;rotatable=0;points=[[0,0.5],[1,0.5]];portConstraint=eastwest;" vertex="1" parent="wfz8kJHECWh1wRqD5ls--6">
          <mxGeometry y="26" width="140" height="134" as="geometry" />
        </mxCell>
        <mxCell id="wfz8kJHECWh1wRqD5ls--8" value=" DateDimension" style="swimlane;fontStyle=0;childLayout=stackLayout;horizontal=1;startSize=26;fillColor=none;horizontalStack=0;resizeParent=1;resizeParentMax=0;resizeLast=0;collapsible=1;marginBottom=0;" vertex="1" parent="1">
          <mxGeometry x="650" y="374" width="140" height="130" as="geometry" />
        </mxCell>
        <mxCell id="wfz8kJHECWh1wRqD5ls--9" value="DateKey (PK)&#xa;FullDate&#xa;Year&#xa;Day&#xa;Month&#xa;DayOfWeek  " style="text;strokeColor=none;fillColor=none;align=left;verticalAlign=top;spacingLeft=4;spacingRight=4;overflow=hidden;rotatable=0;points=[[0,0.5],[1,0.5]];portConstraint=eastwest;" vertex="1" parent="wfz8kJHECWh1wRqD5ls--8">
          <mxGeometry y="26" width="140" height="104" as="geometry" />
        </mxCell>
        <mxCell id="wfz8kJHECWh1wRqD5ls--10" value="AddProductFact" style="swimlane;fontStyle=0;childLayout=stackLayout;horizontal=1;startSize=26;fillColor=none;horizontalStack=0;resizeParent=1;resizeParentMax=0;resizeLast=0;collapsible=1;marginBottom=0;" vertex="1" parent="1">
          <mxGeometry x="180" y="430" width="140" height="90" as="geometry" />
        </mxCell>
        <mxCell id="wfz8kJHECWh1wRqD5ls--11" value="ProductID (FK: Product)&#xa;Name&#xa;Quantity&#xa;Price" style="text;strokeColor=none;fillColor=none;align=left;verticalAlign=top;spacingLeft=4;spacingRight=4;overflow=hidden;rotatable=0;points=[[0,0.5],[1,0.5]];portConstraint=eastwest;" vertex="1" parent="wfz8kJHECWh1wRqD5ls--10">
          <mxGeometry y="26" width="140" height="64" as="geometry" />
        </mxCell>
        <mxCell id="wfz8kJHECWh1wRqD5ls--12" value="DimensionCategory" style="swimlane;fontStyle=0;childLayout=stackLayout;horizontal=1;startSize=26;fillColor=none;horizontalStack=0;resizeParent=1;resizeParentMax=0;resizeLast=0;collapsible=1;marginBottom=0;" vertex="1" parent="1">
          <mxGeometry x="180" y="260" width="140" height="80" as="geometry" />
        </mxCell>
        <mxCell id="wfz8kJHECWh1wRqD5ls--13" value="ProductKey (SK)&#xa;Name&#xa;Details" style="text;strokeColor=none;fillColor=none;align=left;verticalAlign=top;spacingLeft=4;spacingRight=4;overflow=hidden;rotatable=0;points=[[0,0.5],[1,0.5]];portConstraint=eastwest;" vertex="1" parent="wfz8kJHECWh1wRqD5ls--12">
          <mxGeometry y="26" width="140" height="54" as="geometry" />
        </mxCell>
        <mxCell id="wfz8kJHECWh1wRqD5ls--14" value="Address Dimension" style="swimlane;fontStyle=0;childLayout=stackLayout;horizontal=1;startSize=26;fillColor=none;horizontalStack=0;resizeParent=1;resizeParentMax=0;resizeLast=0;collapsible=1;marginBottom=0;" vertex="1" parent="1">
          <mxGeometry x="429" y="240" width="120" height="110" as="geometry" />
        </mxCell>
        <mxCell id="wfz8kJHECWh1wRqD5ls--15" value="AddressKey (SK)&#xa;PostalCode&#xa;Country&#xa;City&#xa;Street&#xa;" style="text;strokeColor=none;fillColor=none;align=left;verticalAlign=top;spacingLeft=4;spacingRight=4;overflow=hidden;rotatable=0;points=[[0,0.5],[1,0.5]];portConstraint=eastwest;" vertex="1" parent="wfz8kJHECWh1wRqD5ls--14">
          <mxGeometry y="26" width="120" height="84" as="geometry" />
        </mxCell>
        <mxCell id="wfz8kJHECWh1wRqD5ls--16" value="" style="endArrow=none;html=1;rounded=0;entryX=0.526;entryY=0.995;entryDx=0;entryDy=0;entryPerimeter=0;exitX=0.592;exitY=0.004;exitDx=0;exitDy=0;exitPerimeter=0;" edge="1" parent="1" target="wfz8kJHECWh1wRqD5ls--3" source="wfz8kJHECWh1wRqD5ls--14">
          <mxGeometry width="50" height="50" relative="1" as="geometry">
            <mxPoint x="476" y="240" as="sourcePoint" />
            <mxPoint x="600" y="290" as="targetPoint" />
          </mxGeometry>
        </mxCell>
        <mxCell id="wfz8kJHECWh1wRqD5ls--20" value="" style="endArrow=none;html=1;rounded=0;entryX=0.467;entryY=1.003;entryDx=0;entryDy=0;entryPerimeter=0;" edge="1" parent="1" target="wfz8kJHECWh1wRqD5ls--13">
          <mxGeometry width="50" height="50" relative="1" as="geometry">
            <mxPoint x="244" y="430" as="sourcePoint" />
            <mxPoint x="242" y="340" as="targetPoint" />
          </mxGeometry>
        </mxCell>
        <mxCell id="wfz8kJHECWh1wRqD5ls--21" value="" style="endArrow=none;html=1;rounded=0;exitX=0.5;exitY=0;exitDx=0;exitDy=0;entryX=1.014;entryY=1;entryDx=0;entryDy=0;entryPerimeter=0;" edge="1" parent="1" source="wfz8kJHECWh1wRqD5ls--8" target="wfz8kJHECWh1wRqD5ls--3">
          <mxGeometry width="50" height="50" relative="1" as="geometry">
            <mxPoint x="529.99" y="493.2320000000002" as="sourcePoint" />
            <mxPoint x="600" y="290" as="targetPoint" />
          </mxGeometry>
        </mxCell>
        <mxCell id="wfz8kJHECWh1wRqD5ls--22" value="" style="endArrow=none;html=1;rounded=0;exitX=1.011;exitY=0.383;exitDx=0;exitDy=0;exitPerimeter=0;entryX=-0.001;entryY=0.101;entryDx=0;entryDy=0;entryPerimeter=0;" edge="1" parent="1" source="wfz8kJHECWh1wRqD5ls--3" target="wfz8kJHECWh1wRqD5ls--7">
          <mxGeometry width="50" height="50" relative="1" as="geometry">
            <mxPoint x="550" y="340" as="sourcePoint" />
            <mxPoint x="600" y="290" as="targetPoint" />
          </mxGeometry>
        </mxCell>
      </root>
    </mxGraphModel>
  </diagram>
</mxfile>
